<svg xmlns="http://www.w3.org/2000/svg" viewBox="0 0 64 64" role="img" aria-label="Be Blank Core OS">
  <rect width="64" height="64" rx="18" fill="#fff9ef"/>
  <rect x="9" y="9" width="46" height="46" rx="14" fill="none" stroke="#2a2723" stroke-width="4"/>
  <path d="M21 22h16c5.2 0 8 2.7 8 6.7 0 2.5-1.2 4.5-3.4 5.6 2.8.9 4.4 3.3 4.4 6.2 0 4.6-3.4 7.5-8.9 7.5H21V22Zm15.4 10.3c2 0 3.2-1 3.2-2.8 0-1.7-1.2-2.7-3.2-2.7H26.7v5.5h9.7Zm.8 10.9c2.3 0 3.6-1.1 3.6-3.1s-1.3-3.1-3.6-3.1H26.7v6.2h10.5Z" fill="#2a2723"/>
</svg>
